<svg width="27" height="26" viewBox="0 0 27 26" fill="none" xmlns="http://www.w3.org/2000/svg">
<path fill-rule="evenodd" clip-rule="evenodd" d="M18.2542 0.0714487C17.2153 0.279634 16.1534 0.847269 15.421 1.58585C14.3894 2.62622 13.7699 4.05547 13.813 5.29575L13.8263 5.67819L14.2376 5.6724C15.2033 5.65875 16.148 5.20711 17.0558 4.32508C18.211 3.20264 18.8183 1.87022 18.8183 0.458164V0L18.693 0.00432186C18.624 0.00671268 18.4265 0.0369198 18.2542 0.0714487ZM17.4734 5.77249C16.9818 5.86551 16.536 5.99387 15.855 6.23856C15.5416 6.35116 15.0287 6.52661 14.7153 6.62836C13.9382 6.88068 13.8625 6.87236 12.4358 6.37714C10.9073 5.84661 10.5994 5.77456 9.86 5.77447C7.89797 5.77419 6.03354 6.8468 4.90411 8.62552C4.46777 9.3127 4.08131 10.3412 3.90123 11.2943C3.81078 11.7731 3.79852 11.9812 3.80012 13.0116C3.80157 13.9885 3.81831 14.2849 3.90023 14.7893C4.24069 16.8855 5.06126 19.0285 6.15955 20.6898C7.10211 22.1155 8.06551 23.1759 8.83424 23.6336C9.30901 23.9163 9.6192 24.0001 10.1891 24C10.7521 23.9999 11.1801 23.9021 12.0049 23.5851C13.102 23.1634 13.6187 23.0601 14.4645 23.0933C15.1407 23.1199 15.6367 23.2324 16.4041 23.5332C18.0396 24.1743 18.9759 24.1523 20.0036 23.4485C20.935 22.8106 22.2919 21.0417 23.0996 19.4126C23.3674 18.8725 23.779 17.8697 23.7994 17.7075C23.8077 17.642 23.7229 17.5743 23.4509 17.4291C22.1975 16.7601 21.2082 15.62 20.8079 14.3833C20.5123 13.47 20.4691 12.2047 20.7027 11.3009C20.9971 10.1619 21.6289 9.2521 22.6628 8.47849C22.9091 8.29412 23.1343 8.13536 23.1631 8.1257C23.2288 8.10359 22.8315 7.59572 22.5048 7.28423C21.7604 6.57447 20.7896 6.08509 19.6376 5.83875C19.0138 5.70537 17.9934 5.6741 17.4734 5.77249Z" fill="black"/>
</svg>
