<svg width="26" height="26" viewBox="0 0 26 26" fill="none" xmlns="http://www.w3.org/2000/svg">
<path d="M6 10C8.20914 10 10 8.20914 10 6C10 3.79086 8.20914 2 6 2C3.79086 2 2 3.79086 2 6C2 8.20914 3.79086 10 6 10Z" stroke="black" stroke-width="4" stroke-linecap="round"/>
<path d="M6 24C8.20914 24 10 22.2091 10 20C10 17.7909 8.20914 16 6 16C3.79086 16 2 17.7909 2 20C2 22.2091 3.79086 24 6 24Z" stroke="black" stroke-width="4" stroke-linecap="round"/>
<path d="M20 10C22.2091 10 24 8.20914 24 6C24 3.79086 22.2091 2 20 2C17.7909 2 16 3.79086 16 6C16 8.20914 17.7909 10 20 10Z" stroke="black" stroke-width="4" stroke-linecap="round"/>
<path d="M20 24C22.2091 24 24 22.2091 24 20C24 17.7909 22.2091 16 20 16C17.7909 16 16 17.7909 16 20C16 22.2091 17.7909 24 20 24Z" stroke="black" stroke-width="4" stroke-linecap="round"/>
</svg>
