<svg width="412" height="79" viewBox="0 0 412 79" fill="none" xmlns="http://www.w3.org/2000/svg">
<path d="M0 43.9444C0 24.5838 15.6949 8.88889 35.0555 8.88889H79.4244C83.3365 8.88889 87.1532 7.68131 90.3533 5.43106L96.3513 1.21342C97.3866 0.485452 98.7673 0.485451 99.8025 1.21342L105.801 5.43105C109.001 7.6813 112.817 8.88889 116.729 8.88889H376.944C396.305 8.88889 412 24.5838 412 43.9444V43.9444C412 63.3051 396.305 79 376.944 79H35.0555C15.6949 79 0 63.3051 0 43.9444V43.9444Z" fill="url(#paint0_linear_2_7380)"/>
<path d="M60 51.5L67 44L60 36.5" stroke="white" stroke-width="3"/>
<path d="M90.73 43.43C91.846 42.944 92.548 41.972 92.548 40.748C92.548 38.462 90.028 37.13 87.112 37.13C85.672 37.13 84.16 37.454 82.792 38.156L83.674 40.424C84.754 39.812 85.996 39.524 87.058 39.524C88.48 39.524 89.596 40.064 89.596 41.09C89.596 41.918 88.912 42.44 87.724 42.44H84.862V44.636H87.94C89.254 44.636 90.118 45.104 90.118 46.058C90.118 47.228 88.768 47.84 87.112 47.84C85.888 47.84 84.484 47.516 83.332 46.814L82.432 48.902C83.998 49.802 85.78 50.216 87.454 50.216C90.478 50.216 93.07 48.848 93.07 46.472C93.07 45.05 92.188 43.934 90.73 43.43ZM98.9245 40.172C97.3765 40.172 95.8105 40.586 94.7485 41.342L95.7565 43.304C96.4585 42.746 97.5205 42.404 98.5465 42.404C100.059 42.404 100.779 43.106 100.779 44.312H98.5465C95.5945 44.312 94.3885 45.5 94.3885 47.21C94.3885 48.884 95.7385 50.144 98.0065 50.144C99.4285 50.144 100.437 49.676 100.959 48.794V50H103.587V44.474C103.587 41.54 101.877 40.172 98.9245 40.172ZM98.7085 48.254C97.7185 48.254 97.1245 47.786 97.1245 47.084C97.1245 46.436 97.5385 45.95 98.8525 45.95H100.779V46.94C100.455 47.822 99.6445 48.254 98.7085 48.254ZM106.026 40.316V50H108.816V42.62H112.848V50H115.656V40.316H106.026ZM118.348 50H120.94L125.638 44.24V50H128.428V40.316H125.854L121.138 46.076V40.316H118.348V50ZM135.735 50.144C137.769 50.144 139.371 49.244 140.073 47.696L137.895 46.508C137.373 47.444 136.599 47.84 135.717 47.84C134.295 47.84 133.179 46.85 133.179 45.158C133.179 43.466 134.295 42.476 135.717 42.476C136.599 42.476 137.373 42.89 137.895 43.808L140.073 42.638C139.371 41.054 137.769 40.172 135.735 40.172C132.585 40.172 130.335 42.242 130.335 45.158C130.335 48.074 132.585 50.144 135.735 50.144ZM145.542 40.172C143.994 40.172 142.428 40.586 141.366 41.342L142.374 43.304C143.076 42.746 144.138 42.404 145.164 42.404C146.676 42.404 147.396 43.106 147.396 44.312H145.164C142.212 44.312 141.006 45.5 141.006 47.21C141.006 48.884 142.356 50.144 144.624 50.144C146.046 50.144 147.054 49.676 147.576 48.794V50H150.204V44.474C150.204 41.54 148.494 40.172 145.542 40.172ZM145.326 48.254C144.336 48.254 143.742 47.786 143.742 47.084C143.742 46.436 144.156 45.95 145.47 45.95H147.396V46.94C147.072 47.822 146.262 48.254 145.326 48.254ZM160.779 40.316H151.437V42.62H154.713V50H157.503V42.62H160.779V40.316ZM167.514 43.412H165.066V40.316H162.276V50L167.136 50.018C169.836 50.018 171.42 48.776 171.42 46.634C171.42 44.6 170.052 43.43 167.514 43.412ZM166.884 48.02H165.066V45.212L166.884 45.23C167.964 45.248 168.558 45.644 168.558 46.598C168.558 47.552 167.964 48.038 166.884 48.02ZM177.782 50.144C179.816 50.144 181.418 49.244 182.12 47.696L179.942 46.508C179.42 47.444 178.646 47.84 177.764 47.84C176.342 47.84 175.226 46.85 175.226 45.158C175.226 43.466 176.342 42.476 177.764 42.476C178.646 42.476 179.42 42.89 179.942 43.808L182.12 42.638C181.418 41.054 179.816 40.172 177.782 40.172C174.632 40.172 172.382 42.242 172.382 45.158C172.382 48.074 174.632 50.144 177.782 50.144ZM187.558 40.316C184.714 40.316 182.932 41.576 182.932 43.88C182.932 45.302 183.67 46.31 185.002 46.832L182.788 50H185.776L187.612 47.228H189.682V50H192.184V40.316H187.558ZM187.612 42.602H189.682V45.356H187.576C186.406 45.356 185.794 44.942 185.794 43.97C185.794 42.998 186.442 42.602 187.612 42.602ZM199.981 50H202.771V46.382H206.983V50H209.791V40.316H206.983V44.096H202.771V40.316H199.981V50ZM216.241 40.172C214.693 40.172 213.127 40.586 212.065 41.342L213.073 43.304C213.775 42.746 214.837 42.404 215.863 42.404C217.375 42.404 218.095 43.106 218.095 44.312H215.863C212.911 44.312 211.705 45.5 211.705 47.21C211.705 48.884 213.055 50.144 215.323 50.144C216.745 50.144 217.753 49.676 218.275 48.794V50H220.903V44.474C220.903 41.54 219.193 40.172 216.241 40.172ZM216.025 48.254C215.035 48.254 214.441 47.786 214.441 47.084C214.441 46.436 214.855 45.95 216.169 45.95H218.095V46.94C217.771 47.822 216.961 48.254 216.025 48.254ZM237.908 47.696V40.316H229.466L229.34 43.664C229.232 45.77 228.998 47.66 227.666 47.696H227.27V52.088H229.88V50H236.684V52.088H239.294V47.696H237.908ZM231.878 43.862L231.932 42.62H235.1V47.696H231.014C231.698 46.976 231.824 45.5 231.878 43.862ZM241.061 50H243.653L248.351 44.24V50H251.141V40.316H248.567L243.851 46.076V40.316H241.061V50ZM257.602 40.172C256.054 40.172 254.488 40.586 253.426 41.342L254.434 43.304C255.136 42.746 256.198 42.404 257.224 42.404C258.736 42.404 259.456 43.106 259.456 44.312H257.224C254.272 44.312 253.066 45.5 253.066 47.21C253.066 48.884 254.416 50.144 256.684 50.144C258.106 50.144 259.114 49.676 259.636 48.794V50H262.264V44.474C262.264 41.54 260.554 40.172 257.602 40.172ZM257.386 48.254C256.396 48.254 255.802 47.786 255.802 47.084C255.802 46.436 256.216 45.95 257.53 45.95H259.456V46.94C259.132 47.822 258.322 48.254 257.386 48.254ZM272.462 40.316H264.704V50H267.494V42.62H272.462V40.316ZM273.95 50H276.74V46.382H280.952V50H283.76V40.316H280.952V44.096H276.74V40.316H273.95V50ZM290.984 50.144C294.062 50.144 296.294 48.074 296.294 45.158C296.294 42.242 294.062 40.172 290.984 40.172C287.906 40.172 285.656 42.242 285.656 45.158C285.656 48.074 287.906 50.144 290.984 50.144ZM290.984 47.84C289.58 47.84 288.5 46.832 288.5 45.158C288.5 43.484 289.58 42.476 290.984 42.476C292.388 42.476 293.45 43.484 293.45 45.158C293.45 46.832 292.388 47.84 290.984 47.84ZM302.833 50.144C304.867 50.144 306.469 49.244 307.171 47.696L304.993 46.508C304.471 47.444 303.697 47.84 302.815 47.84C301.393 47.84 300.277 46.85 300.277 45.158C300.277 43.466 301.393 42.476 302.815 42.476C303.697 42.476 304.471 42.89 304.993 43.808L307.171 42.638C306.469 41.054 304.867 40.172 302.833 40.172C299.683 40.172 297.433 42.242 297.433 45.158C297.433 48.074 299.683 50.144 302.833 50.144ZM316.978 40.316H307.636V42.62H310.912V50H313.702V42.62H316.978V40.316ZM318.475 50H321.067L325.765 44.24V50H328.555V40.316H325.981L321.265 46.076V40.316H318.475V50ZM338.112 50H341.424L337.806 44.96L341.19 40.316H338.202L335.574 44.078H334.062V40.316H331.254V50H334.062V46.328H335.52L338.112 50ZM349.26 40.316L346.524 46.886L343.806 40.316H340.908L345.102 50.072L345.066 50.162C344.688 51.026 344.256 51.368 343.482 51.368C342.924 51.368 342.33 51.134 341.898 50.756L340.872 52.754C341.502 53.312 342.582 53.636 343.572 53.636C345.318 53.636 346.65 52.934 347.586 50.594L351.96 40.316H349.26Z" fill="white"/>
<defs>
<linearGradient id="paint0_linear_2_7380" x1="412" y1="40" x2="-1.05092e-07" y2="40" gradientUnits="userSpaceOnUse">
<stop stop-color="#FFCC00"/>
<stop offset="1" stop-color="#FFA300"/>
</linearGradient>
</defs>
</svg>
