<svg width="70" height="70" viewBox="0 0 70 70" fill="none" xmlns="http://www.w3.org/2000/svg">
<rect width="70" height="70" rx="10" fill="white"/>
<path d="M26.9598 46.9598L23.9899 43.9899L49.954 18.0259L51.0412 14.9588L57.224 10.7559L60.1938 13.7258L55.991 19.9085L52.9239 20.9957L26.9598 46.9598Z" fill="black"/>
<path fill-rule="evenodd" clip-rule="evenodd" d="M34.5456 29.5456L32.0326 29.8094C29.9783 30.025 28.0603 30.9397 26.5997 32.4003L15.7365 43.2635C12.2218 46.7782 12.2218 52.4767 15.7365 55.9914C19.2513 59.5061 24.9498 59.5061 28.4645 55.9914L39.3276 45.1282C40.7882 43.6676 41.7029 41.7497 41.9185 39.6953L42.1823 37.1823L34.5456 29.5456Z" fill="#4633B9"/>
<path fill-rule="evenodd" clip-rule="evenodd" d="M34.5456 29.5456L32.0326 29.8094C29.9783 30.025 28.0603 30.9397 26.5997 32.4003L15.7365 43.2635C12.2218 46.7782 12.2218 52.4767 15.7365 55.9914C19.2513 59.5061 24.9498 59.5061 28.4645 55.9914L39.3276 45.1282C40.7882 43.6676 41.7029 41.7497 41.9185 39.6953L42.1823 37.1823L34.5456 29.5456Z" fill="#1767F9"/>
<path fill-rule="evenodd" clip-rule="evenodd" d="M34.5456 29.5456L32.0326 29.8094C29.9783 30.025 28.0603 30.9397 26.5997 32.4003L15.7365 43.2635C12.2218 46.7782 12.2218 52.4767 15.7365 55.9914C19.2513 59.5061 24.9498 59.5061 28.4645 55.9914L39.3276 45.1282C40.7882 43.6676 41.7029 41.7497 41.9185 39.6953L42.1823 37.1823L34.5456 29.5456Z" fill="#4BB1BC"/>
<path fill-rule="evenodd" clip-rule="evenodd" d="M34.5456 29.5456L32.0326 29.8094C29.9783 30.025 28.0603 30.9397 26.5997 32.4003L15.7365 43.2635C12.2218 46.7782 12.2218 52.4767 15.7365 55.9914C19.2513 59.5061 24.9498 59.5061 28.4645 55.9914L39.3276 45.1282C40.7882 43.6676 41.7029 41.7497 41.9185 39.6953L42.1823 37.1823L34.5456 29.5456Z" fill="#FFA300"/>
<path fill-rule="evenodd" clip-rule="evenodd" d="M34.5456 29.5456L32.0326 29.8094C29.9783 30.025 28.0603 30.9397 26.5997 32.4003L15.7365 43.2635C12.2218 46.7782 12.2218 52.4767 15.7365 55.9914C19.2513 59.5061 24.9498 59.5061 28.4645 55.9914L39.3276 45.1282C40.7882 43.6676 41.7029 41.7497 41.9185 39.6953L42.1823 37.1823L34.5456 29.5456Z" fill="url(#paint0_linear_2_7400)"/>
<path d="M40.4646 27.4646C38.4994 25.4994 35.303 26.3516 34.8818 28.9529L42.5324 36.6034C45.1337 36.1823 45.9858 32.9858 44.0207 31.0207L40.4646 27.4646Z" fill="#FFA300"/>
<rect x="30" y="36" width="2" height="18" rx="1" transform="rotate(45 30 36)" fill="black"/>
<rect x="34" y="40" width="2" height="18" rx="1" transform="rotate(45 34 40)" fill="black"/>
<defs>
<linearGradient id="paint0_linear_2_7400" x1="33.4142" y1="51.0416" x2="20.6863" y2="38.3137" gradientUnits="userSpaceOnUse">
<stop stop-color="#FFCC00"/>
<stop offset="1" stop-color="#FFA300"/>
</linearGradient>
</defs>
</svg>
