<svg width="70" height="70" viewBox="0 0 70 70" fill="none" xmlns="http://www.w3.org/2000/svg">
<rect width="70" height="70" rx="10" fill="white"/>
<path d="M57.9215 22.2505C57.8791 21.8304 57.7288 21.4277 57.4846 21.0802C57.2403 20.7326 56.9102 20.4515 56.525 20.2632L36.1391 10.2643C35.785 10.0905 35.3946 10 34.9987 10C34.6028 10 34.2124 10.0905 33.8584 10.2643L13.4724 20.2632C13.0883 20.4526 12.7592 20.734 12.5155 21.0814C12.2719 21.4288 12.1216 21.8309 12.0785 22.2505C12.0505 22.518 9.62968 49.1652 33.9654 59.7816C34.2906 59.9256 34.6433 60 35 60C35.3568 60 35.7094 59.9256 36.0346 59.7816C60.3703 49.1652 57.9495 22.5205 57.9215 22.2505Z" fill="#4633B9"/>
<path d="M57.9215 22.2505C57.8791 21.8304 57.7288 21.4277 57.4846 21.0802C57.2403 20.7326 56.9102 20.4515 56.525 20.2632L36.1391 10.2643C35.785 10.0905 35.3946 10 34.9987 10C34.6028 10 34.2124 10.0905 33.8584 10.2643L13.4724 20.2632C13.0883 20.4526 12.7592 20.734 12.5155 21.0814C12.2719 21.4288 12.1216 21.8309 12.0785 22.2505C12.0505 22.518 9.62968 49.1652 33.9654 59.7816C34.2906 59.9256 34.6433 60 35 60C35.3568 60 35.7094 59.9256 36.0346 59.7816C60.3703 49.1652 57.9495 22.5205 57.9215 22.2505Z" fill="#1767F9"/>
<path d="M57.9215 22.2505C57.8791 21.8304 57.7288 21.4277 57.4846 21.0802C57.2403 20.7326 56.9102 20.4515 56.525 20.2632L36.1391 10.2643C35.785 10.0905 35.3946 10 34.9987 10C34.6028 10 34.2124 10.0905 33.8584 10.2643L13.4724 20.2632C13.0883 20.4526 12.7592 20.734 12.5155 21.0814C12.2719 21.4288 12.1216 21.8309 12.0785 22.2505C12.0505 22.518 9.62968 49.1652 33.9654 59.7816C34.2906 59.9256 34.6433 60 35 60C35.3568 60 35.7094 59.9256 36.0346 59.7816C60.3703 49.1652 57.9495 22.5205 57.9215 22.2505Z" fill="#4BB1BC"/>
<path d="M57.9215 22.2505C57.8791 21.8304 57.7288 21.4277 57.4846 21.0802C57.2403 20.7326 56.9102 20.4515 56.525 20.2632L36.1391 10.2643C35.785 10.0905 35.3946 10 34.9987 10C34.6028 10 34.2124 10.0905 33.8584 10.2643L13.4724 20.2632C13.0883 20.4526 12.7592 20.734 12.5155 21.0814C12.2719 21.4288 12.1216 21.8309 12.0785 22.2505C12.0505 22.518 9.62968 49.1652 33.9654 59.7816C34.2906 59.9256 34.6433 60 35 60C35.3568 60 35.7094 59.9256 36.0346 59.7816C60.3703 49.1652 57.9495 22.5205 57.9215 22.2505Z" fill="url(#paint0_radial_2_7411)"/>
<path d="M57.9215 22.2505C57.8791 21.8304 57.7288 21.4277 57.4846 21.0802C57.2403 20.7326 56.9102 20.4515 56.525 20.2632L36.1391 10.2643C35.785 10.0905 35.3946 10 34.9987 10C34.6028 10 34.2124 10.0905 33.8584 10.2643L13.4724 20.2632C13.0883 20.4526 12.7592 20.734 12.5155 21.0814C12.2719 21.4288 12.1216 21.8309 12.0785 22.2505C12.0505 22.518 9.62968 49.1652 33.9654 59.7816C34.2906 59.9256 34.6433 60 35 60C35.3568 60 35.7094 59.9256 36.0346 59.7816C60.3703 49.1652 57.9495 22.5205 57.9215 22.2505Z" fill="url(#paint1_radial_2_7411)" fill-opacity="0.5"/>
<path d="M57.9215 22.2505C57.8791 21.8304 57.7288 21.4277 57.4846 21.0802C57.2403 20.7326 56.9102 20.4515 56.525 20.2632L36.1391 10.2643C35.785 10.0905 35.3946 10 34.9987 10C34.6028 10 34.2124 10.0905 33.8584 10.2643L13.4724 20.2632C13.0883 20.4526 12.7592 20.734 12.5155 21.0814C12.2719 21.4288 12.1216 21.8309 12.0785 22.2505C12.0505 22.518 9.62968 49.1652 33.9654 59.7816C34.2906 59.9256 34.6433 60 35 60C35.3568 60 35.7094 59.9256 36.0346 59.7816C60.3703 49.1652 57.9495 22.5205 57.9215 22.2505Z" fill="url(#paint2_linear_2_7411)"/>
<path d="M53.4412 24.6882L53.4408 24.6838C53.4301 24.5764 53.3922 24.473 53.3299 24.3831L54.563 23.5289L53.3299 24.3831C53.2677 24.2932 53.1829 24.2197 53.0831 24.1702L53.0813 24.1693L35.7976 15.5702L35.7971 15.57C35.7049 15.5241 35.6028 15.5 35.4989 15.5C35.3951 15.5 35.2929 15.5241 35.2007 15.57L35.2003 15.5702L17.9193 24.168C17.919 24.1681 17.9187 24.1682 17.9184 24.1684C17.8183 24.2186 17.7334 24.2927 17.6709 24.3831C17.6082 24.4738 17.5699 24.5781 17.559 24.6863L17.5587 24.6896M53.4412 24.6882L17.5587 24.6896L17.5587 24.6896M53.4412 24.6882L53.4413 24.6897C53.446 24.7435 53.5667 26.1266 53.4477 28.3111C53.3258 30.5476 52.954 33.5975 51.9642 36.9073C49.9903 43.5083 45.5816 51.0988 35.7701 55.4405L35.7627 55.4438C35.6804 55.4808 35.5908 55.5 35.5 55.5C35.4092 55.5 35.3196 55.4808 35.2373 55.4438L35.2298 55.4405M53.4412 24.6882L35.2298 55.4405M17.5587 24.6896C17.5587 24.6892 17.5586 24.6899 17.5585 24.6915M17.5587 24.6896L17.5585 24.6915M35.2298 55.4405C25.4185 51.0988 21.0097 43.5079 19.0358 36.9066M35.2298 55.4405L19.0358 36.9066M19.0358 36.9066C18.046 33.5965 17.6742 30.5466 17.5523 28.3102M19.0358 36.9066L17.5523 28.3102M17.5523 28.3102C17.4336 26.1321 17.5533 24.7514 17.5585 24.6915M17.5523 28.3102L17.5585 24.6915" stroke="#FFC530" stroke-width="3"/>
<path d="M51.4458 24.9476L51.4462 24.952C51.4462 24.9515 51.4462 24.9522 51.4464 24.9539C51.4513 25.0118 51.5609 26.2909 51.4518 28.3076C51.3396 30.3827 50.9973 33.2121 50.0863 36.2822C48.2695 42.4051 44.2154 49.4344 35.1987 53.4553L35.1912 53.4587C35.131 53.486 35.0658 53.5 35 53.5C34.9342 53.5 34.869 53.486 34.8088 53.4587L34.8012 53.4553C25.7846 49.4344 21.7305 42.4046 19.9137 36.2815C18.0893 30.1329 18.5518 24.9736 18.5536 24.9534L18.5536 24.9534L18.554 24.9501C18.5625 24.865 18.5923 24.7837 18.6403 24.7138C18.6881 24.6442 18.7522 24.5882 18.8265 24.5505C18.8268 24.5504 18.8271 24.5502 18.8274 24.5501L34.7789 16.5523L34.7793 16.5521C34.8477 16.5178 34.9229 16.5 34.999 16.5C35.0751 16.5 35.1503 16.5178 35.2187 16.5521L35.2191 16.5523L51.1734 24.5515L51.1751 24.5524C51.2491 24.5893 51.313 24.6448 51.3605 24.7138L52.5966 23.8641L51.3605 24.7139C51.408 24.783 51.4375 24.8634 51.4458 24.9476ZM35.8097 54.8253C54.855 46.3322 52.9605 25.0164 52.9385 24.8004H17.0615C17.0395 25.0144 15.145 46.3322 34.1903 54.8253C34.4448 54.9404 34.7208 55 35 55C35.2792 55 35.5552 54.9404 35.8097 54.8253Z" stroke="black" stroke-width="3"/>
<path d="M27 32.6587L32.9188 38L44 28" stroke="black" stroke-width="3"/>
<defs>
<radialGradient id="paint0_radial_2_7411" cx="0" cy="0" r="1" gradientUnits="userSpaceOnUse" gradientTransform="translate(39.6 46.9048) rotate(115.097) scale(28.9208 32.4264)">
<stop stop-color="#FF8A1E"/>
<stop offset="1" stop-color="#EF4141"/>
</radialGradient>
<radialGradient id="paint1_radial_2_7411" cx="0" cy="0" r="1" gradientUnits="userSpaceOnUse" gradientTransform="translate(34.5132 35.5952) rotate(-154.758) scale(55.8338 69.7166)">
<stop stop-color="#FFA901"/>
<stop offset="1" stop-color="#FFC701" stop-opacity="0"/>
</radialGradient>
<linearGradient id="paint2_linear_2_7411" x1="50.2595" y1="10" x2="9.56455" y2="80.338" gradientUnits="userSpaceOnUse">
<stop stop-color="#FFDF35"/>
<stop offset="1" stop-color="#FF8A01" stop-opacity="0"/>
</linearGradient>
</defs>
</svg>
