<svg width="70" height="70" viewBox="0 0 70 70" fill="none" xmlns="http://www.w3.org/2000/svg">
<rect width="70" height="70" rx="10" fill="white"/>
<g clip-path="url(#clip0_2_7435)">
<rect width="5" height="12" rx="2.5" transform="matrix(-0.707107 -0.707107 -0.707107 0.707107 32 42)" fill="#4633B9"/>
<rect width="5" height="12" rx="2.5" transform="matrix(-0.707107 -0.707107 -0.707107 0.707107 32 42)" fill="#1767F9"/>
<rect width="5" height="12" rx="2.5" transform="matrix(-0.707107 -0.707107 -0.707107 0.707107 32 42)" fill="#4BB1BC"/>
<rect width="5" height="12" rx="2.5" transform="matrix(-0.707107 -0.707107 -0.707107 0.707107 32 42)" fill="url(#paint0_radial_2_7435)"/>
<rect width="5" height="12" rx="2.5" transform="matrix(-0.707107 -0.707107 -0.707107 0.707107 32 42)" fill="url(#paint1_radial_2_7435)" fill-opacity="0.5"/>
<rect width="5" height="12" rx="2.5" transform="matrix(-0.707107 -0.707107 -0.707107 0.707107 32 42)" fill="url(#paint2_linear_2_7435)"/>
<path fill-rule="evenodd" clip-rule="evenodd" d="M22.6359 44.6359C21.861 43.861 20.7845 43.4664 19.6924 43.5568C18.813 43.6296 17.988 44.012 17.3641 44.6359L11.5147 50.4853C9.5621 52.4379 9.5621 55.6037 11.5147 57.5564C13.4673 59.509 16.6332 59.509 18.5858 57.5563L24.4352 51.707C25.0591 51.083 25.4415 50.258 25.5143 49.3787C25.6047 48.2866 25.21 47.21 24.4352 46.4352L22.6359 44.6359Z" fill="#4633B9"/>
<path fill-rule="evenodd" clip-rule="evenodd" d="M22.6359 44.6359C21.861 43.861 20.7845 43.4664 19.6924 43.5568C18.813 43.6296 17.988 44.012 17.3641 44.6359L11.5147 50.4853C9.5621 52.4379 9.5621 55.6037 11.5147 57.5564C13.4673 59.509 16.6332 59.509 18.5858 57.5563L24.4352 51.707C25.0591 51.083 25.4415 50.258 25.5143 49.3787C25.6047 48.2866 25.21 47.21 24.4352 46.4352L22.6359 44.6359Z" fill="#1767F9"/>
<path fill-rule="evenodd" clip-rule="evenodd" d="M22.6359 44.6359C21.861 43.861 20.7845 43.4664 19.6924 43.5568C18.813 43.6296 17.988 44.012 17.3641 44.6359L11.5147 50.4853C9.5621 52.4379 9.5621 55.6037 11.5147 57.5564C13.4673 59.509 16.6332 59.509 18.5858 57.5563L24.4352 51.707C25.0591 51.083 25.4415 50.258 25.5143 49.3787C25.6047 48.2866 25.21 47.21 24.4352 46.4352L22.6359 44.6359Z" fill="#4BB1BC"/>
<path fill-rule="evenodd" clip-rule="evenodd" d="M22.6359 44.6359C21.861 43.861 20.7845 43.4664 19.6924 43.5568C18.813 43.6296 17.988 44.012 17.3641 44.6359L11.5147 50.4853C9.5621 52.4379 9.5621 55.6037 11.5147 57.5564C13.4673 59.509 16.6332 59.509 18.5858 57.5563L24.4352 51.707C25.0591 51.083 25.4415 50.258 25.5143 49.3787C25.6047 48.2866 25.21 47.21 24.4352 46.4352L22.6359 44.6359Z" fill="url(#paint3_radial_2_7435)"/>
<path fill-rule="evenodd" clip-rule="evenodd" d="M22.6359 44.6359C21.861 43.861 20.7845 43.4664 19.6924 43.5568C18.813 43.6296 17.988 44.012 17.3641 44.6359L11.5147 50.4853C9.5621 52.4379 9.5621 55.6037 11.5147 57.5564C13.4673 59.509 16.6332 59.509 18.5858 57.5563L24.4352 51.707C25.0591 51.083 25.4415 50.258 25.5143 49.3787C25.6047 48.2866 25.21 47.21 24.4352 46.4352L22.6359 44.6359Z" fill="url(#paint4_radial_2_7435)" fill-opacity="0.5"/>
<path fill-rule="evenodd" clip-rule="evenodd" d="M22.6359 44.6359C21.861 43.861 20.7845 43.4664 19.6924 43.5568C18.813 43.6296 17.988 44.012 17.3641 44.6359L11.5147 50.4853C9.5621 52.4379 9.5621 55.6037 11.5147 57.5564C13.4673 59.509 16.6332 59.509 18.5858 57.5563L24.4352 51.707C25.0591 51.083 25.4415 50.258 25.5143 49.3787C25.6047 48.2866 25.21 47.21 24.4352 46.4352L22.6359 44.6359Z" fill="url(#paint5_linear_2_7435)"/>
<path d="M43.7829 13.4262C41.293 12.8579 38.707 12.8579 36.2171 13.4262C33.7273 13.9945 31.3974 15.1165 29.4007 16.7089C27.4039 18.3012 25.7916 20.323 24.6835 22.624C23.5754 24.925 23 27.4461 23 30C23 32.5539 23.5754 35.075 24.6835 37.376C25.7916 39.677 27.4039 41.6988 29.4007 43.2911C31.3974 44.8835 33.7273 46.0055 36.2171 46.5738C38.707 47.1421 41.293 47.1421 43.7829 46.5738C46.2727 46.0055 48.6026 44.8835 50.5993 43.2911C52.5961 41.6988 54.2084 39.677 55.3165 37.376C56.4246 35.075 57 32.5539 57 30C57 27.4461 56.4246 24.925 55.3165 22.624C54.2084 20.323 52.5961 18.3012 50.5993 16.7089C48.6026 15.1165 46.2727 13.9945 43.7829 13.4262Z" fill="#4633B9"/>
<path d="M43.7829 13.4262C41.293 12.8579 38.707 12.8579 36.2171 13.4262C33.7273 13.9945 31.3974 15.1165 29.4007 16.7089C27.4039 18.3012 25.7916 20.323 24.6835 22.624C23.5754 24.925 23 27.4461 23 30C23 32.5539 23.5754 35.075 24.6835 37.376C25.7916 39.677 27.4039 41.6988 29.4007 43.2911C31.3974 44.8835 33.7273 46.0055 36.2171 46.5738C38.707 47.1421 41.293 47.1421 43.7829 46.5738C46.2727 46.0055 48.6026 44.8835 50.5993 43.2911C52.5961 41.6988 54.2084 39.677 55.3165 37.376C56.4246 35.075 57 32.5539 57 30C57 27.4461 56.4246 24.925 55.3165 22.624C54.2084 20.323 52.5961 18.3012 50.5993 16.7089C48.6026 15.1165 46.2727 13.9945 43.7829 13.4262Z" fill="#1767F9"/>
<path d="M43.7829 13.4262C41.293 12.8579 38.707 12.8579 36.2171 13.4262C33.7273 13.9945 31.3974 15.1165 29.4007 16.7089C27.4039 18.3012 25.7916 20.323 24.6835 22.624C23.5754 24.925 23 27.4461 23 30C23 32.5539 23.5754 35.075 24.6835 37.376C25.7916 39.677 27.4039 41.6988 29.4007 43.2911C31.3974 44.8835 33.7273 46.0055 36.2171 46.5738C38.707 47.1421 41.293 47.1421 43.7829 46.5738C46.2727 46.0055 48.6026 44.8835 50.5993 43.2911C52.5961 41.6988 54.2084 39.677 55.3165 37.376C56.4246 35.075 57 32.5539 57 30C57 27.4461 56.4246 24.925 55.3165 22.624C54.2084 20.323 52.5961 18.3012 50.5993 16.7089C48.6026 15.1165 46.2727 13.9945 43.7829 13.4262Z" fill="#4BB1BC"/>
<path d="M43.7829 13.4262C41.293 12.8579 38.707 12.8579 36.2171 13.4262C33.7273 13.9945 31.3974 15.1165 29.4007 16.7089C27.4039 18.3012 25.7916 20.323 24.6835 22.624C23.5754 24.925 23 27.4461 23 30C23 32.5539 23.5754 35.075 24.6835 37.376C25.7916 39.677 27.4039 41.6988 29.4007 43.2911C31.3974 44.8835 33.7273 46.0055 36.2171 46.5738C38.707 47.1421 41.293 47.1421 43.7829 46.5738C46.2727 46.0055 48.6026 44.8835 50.5993 43.2911C52.5961 41.6988 54.2084 39.677 55.3165 37.376C56.4246 35.075 57 32.5539 57 30C57 27.4461 56.4246 24.925 55.3165 22.624C54.2084 20.323 52.5961 18.3012 50.5993 16.7089C48.6026 15.1165 46.2727 13.9945 43.7829 13.4262Z" fill="url(#paint6_radial_2_7435)"/>
<path d="M43.7829 13.4262C41.293 12.8579 38.707 12.8579 36.2171 13.4262C33.7273 13.9945 31.3974 15.1165 29.4007 16.7089C27.4039 18.3012 25.7916 20.323 24.6835 22.624C23.5754 24.925 23 27.4461 23 30C23 32.5539 23.5754 35.075 24.6835 37.376C25.7916 39.677 27.4039 41.6988 29.4007 43.2911C31.3974 44.8835 33.7273 46.0055 36.2171 46.5738C38.707 47.1421 41.293 47.1421 43.7829 46.5738C46.2727 46.0055 48.6026 44.8835 50.5993 43.2911C52.5961 41.6988 54.2084 39.677 55.3165 37.376C56.4246 35.075 57 32.5539 57 30C57 27.4461 56.4246 24.925 55.3165 22.624C54.2084 20.323 52.5961 18.3012 50.5993 16.7089C48.6026 15.1165 46.2727 13.9945 43.7829 13.4262Z" fill="url(#paint7_radial_2_7435)" fill-opacity="0.5"/>
<path d="M43.7829 13.4262C41.293 12.8579 38.707 12.8579 36.2171 13.4262C33.7273 13.9945 31.3974 15.1165 29.4007 16.7089C27.4039 18.3012 25.7916 20.323 24.6835 22.624C23.5754 24.925 23 27.4461 23 30C23 32.5539 23.5754 35.075 24.6835 37.376C25.7916 39.677 27.4039 41.6988 29.4007 43.2911C31.3974 44.8835 33.7273 46.0055 36.2171 46.5738C38.707 47.1421 41.293 47.1421 43.7829 46.5738C46.2727 46.0055 48.6026 44.8835 50.5993 43.2911C52.5961 41.6988 54.2084 39.677 55.3165 37.376C56.4246 35.075 57 32.5539 57 30C57 27.4461 56.4246 24.925 55.3165 22.624C54.2084 20.323 52.5961 18.3012 50.5993 16.7089C48.6026 15.1165 46.2727 13.9945 43.7829 13.4262Z" fill="url(#paint8_radial_2_7435)"/>
<path d="M42.9477 18.7758C41.3366 18.4081 39.6634 18.4081 38.0523 18.7758C36.4412 19.1435 34.9336 19.8695 33.6416 20.8999C32.3496 21.9302 31.3064 23.2384 30.5893 24.7273C29.8723 26.2162 29.5 27.8475 29.5 29.5C29.5 31.1525 29.8723 32.7838 30.5893 34.2727C31.3064 35.7616 32.3496 37.0698 33.6416 38.1001C34.9336 39.1305 36.4412 39.8565 38.0523 40.2242C39.6634 40.5919 41.3366 40.5919 42.9477 40.2242C44.5588 39.8565 46.0664 39.1305 47.3584 38.1001C48.6504 37.0698 49.6936 35.7616 50.4107 34.2727C51.1277 32.7838 51.5 31.1525 51.5 29.5C51.5 27.8475 51.1277 26.2162 50.4107 24.7273C49.6936 23.2384 48.6504 21.9302 47.3584 20.8999C46.0664 19.8695 44.5588 19.1435 42.9477 18.7758Z" stroke="#4633B9" stroke-width="3"/>
<path d="M42.9477 18.7758C41.3366 18.4081 39.6634 18.4081 38.0523 18.7758C36.4412 19.1435 34.9336 19.8695 33.6416 20.8999C32.3496 21.9302 31.3064 23.2384 30.5893 24.7273C29.8723 26.2162 29.5 27.8475 29.5 29.5C29.5 31.1525 29.8723 32.7838 30.5893 34.2727C31.3064 35.7616 32.3496 37.0698 33.6416 38.1001C34.9336 39.1305 36.4412 39.8565 38.0523 40.2242C39.6634 40.5919 41.3366 40.5919 42.9477 40.2242C44.5588 39.8565 46.0664 39.1305 47.3584 38.1001C48.6504 37.0698 49.6936 35.7616 50.4107 34.2727C51.1277 32.7838 51.5 31.1525 51.5 29.5C51.5 27.8475 51.1277 26.2162 50.4107 24.7273C49.6936 23.2384 48.6504 21.9302 47.3584 20.8999C46.0664 19.8695 44.5588 19.1435 42.9477 18.7758Z" stroke="#1767F9" stroke-width="3"/>
<path d="M42.9477 18.7758C41.3366 18.4081 39.6634 18.4081 38.0523 18.7758C36.4412 19.1435 34.9336 19.8695 33.6416 20.8999C32.3496 21.9302 31.3064 23.2384 30.5893 24.7273C29.8723 26.2162 29.5 27.8475 29.5 29.5C29.5 31.1525 29.8723 32.7838 30.5893 34.2727C31.3064 35.7616 32.3496 37.0698 33.6416 38.1001C34.9336 39.1305 36.4412 39.8565 38.0523 40.2242C39.6634 40.5919 41.3366 40.5919 42.9477 40.2242C44.5588 39.8565 46.0664 39.1305 47.3584 38.1001C48.6504 37.0698 49.6936 35.7616 50.4107 34.2727C51.1277 32.7838 51.5 31.1525 51.5 29.5C51.5 27.8475 51.1277 26.2162 50.4107 24.7273C49.6936 23.2384 48.6504 21.9302 47.3584 20.8999C46.0664 19.8695 44.5588 19.1435 42.9477 18.7758Z" stroke="#4BB1BC" stroke-width="3"/>
<path d="M42.9477 18.7758C41.3366 18.4081 39.6634 18.4081 38.0523 18.7758C36.4412 19.1435 34.9336 19.8695 33.6416 20.8999C32.3496 21.9302 31.3064 23.2384 30.5893 24.7273C29.8723 26.2162 29.5 27.8475 29.5 29.5C29.5 31.1525 29.8723 32.7838 30.5893 34.2727C31.3064 35.7616 32.3496 37.0698 33.6416 38.1001C34.9336 39.1305 36.4412 39.8565 38.0523 40.2242C39.6634 40.5919 41.3366 40.5919 42.9477 40.2242C44.5588 39.8565 46.0664 39.1305 47.3584 38.1001C48.6504 37.0698 49.6936 35.7616 50.4107 34.2727C51.1277 32.7838 51.5 31.1525 51.5 29.5C51.5 27.8475 51.1277 26.2162 50.4107 24.7273C49.6936 23.2384 48.6504 21.9302 47.3584 20.8999C46.0664 19.8695 44.5588 19.1435 42.9477 18.7758Z" stroke="url(#paint9_radial_2_7435)" stroke-width="3"/>
<path d="M42.9477 18.7758C41.3366 18.4081 39.6634 18.4081 38.0523 18.7758C36.4412 19.1435 34.9336 19.8695 33.6416 20.8999C32.3496 21.9302 31.3064 23.2384 30.5893 24.7273C29.8723 26.2162 29.5 27.8475 29.5 29.5C29.5 31.1525 29.8723 32.7838 30.5893 34.2727C31.3064 35.7616 32.3496 37.0698 33.6416 38.1001C34.9336 39.1305 36.4412 39.8565 38.0523 40.2242C39.6634 40.5919 41.3366 40.5919 42.9477 40.2242C44.5588 39.8565 46.0664 39.1305 47.3584 38.1001C48.6504 37.0698 49.6936 35.7616 50.4107 34.2727C51.1277 32.7838 51.5 31.1525 51.5 29.5C51.5 27.8475 51.1277 26.2162 50.4107 24.7273C49.6936 23.2384 48.6504 21.9302 47.3584 20.8999C46.0664 19.8695 44.5588 19.1435 42.9477 18.7758Z" stroke="url(#paint10_radial_2_7435)" stroke-opacity="0.5" stroke-width="3"/>
<path d="M42.9477 18.7758C41.3366 18.4081 39.6634 18.4081 38.0523 18.7758C36.4412 19.1435 34.9336 19.8695 33.6416 20.8999C32.3496 21.9302 31.3064 23.2384 30.5893 24.7273C29.8723 26.2162 29.5 27.8475 29.5 29.5C29.5 31.1525 29.8723 32.7838 30.5893 34.2727C31.3064 35.7616 32.3496 37.0698 33.6416 38.1001C34.9336 39.1305 36.4412 39.8565 38.0523 40.2242C39.6634 40.5919 41.3366 40.5919 42.9477 40.2242C44.5588 39.8565 46.0664 39.1305 47.3584 38.1001C48.6504 37.0698 49.6936 35.7616 50.4107 34.2727C51.1277 32.7838 51.5 31.1525 51.5 29.5C51.5 27.8475 51.1277 26.2162 50.4107 24.7273C49.6936 23.2384 48.6504 21.9302 47.3584 20.8999C46.0664 19.8695 44.5588 19.1435 42.9477 18.7758Z" stroke="url(#paint11_radial_2_7435)" stroke-width="3"/>
<path d="M42.7815 17.8134C40.9507 17.3955 39.0493 17.3955 37.2185 17.8134C35.3877 18.2313 33.6746 19.0563 32.2064 20.2271C30.7382 21.3979 29.5527 22.8845 28.7379 24.5765C27.9231 26.2684 27.5 28.1221 27.5 30C27.5 31.8779 27.9231 33.7316 28.7379 35.4235C29.5527 37.1155 30.7382 38.6021 32.2064 39.7729C33.6746 40.9437 35.3877 41.7687 37.2185 42.1866C39.0493 42.6045 40.9507 42.6045 42.7815 42.1866C44.6123 41.7687 46.3254 40.9437 47.7936 39.7729C49.2618 38.6021 50.4473 37.1155 51.2621 35.4235C52.0769 33.7316 52.5 31.8779 52.5 30C52.5 28.1221 52.0769 26.2684 51.2621 24.5765C50.4473 22.8845 49.2618 21.3979 47.7936 20.2271C46.3254 19.0563 44.6123 18.2313 42.7815 17.8134Z" fill="#4633B9"/>
<path d="M42.7815 17.8134C40.9507 17.3955 39.0493 17.3955 37.2185 17.8134C35.3877 18.2313 33.6746 19.0563 32.2064 20.2271C30.7382 21.3979 29.5527 22.8845 28.7379 24.5765C27.9231 26.2684 27.5 28.1221 27.5 30C27.5 31.8779 27.9231 33.7316 28.7379 35.4235C29.5527 37.1155 30.7382 38.6021 32.2064 39.7729C33.6746 40.9437 35.3877 41.7687 37.2185 42.1866C39.0493 42.6045 40.9507 42.6045 42.7815 42.1866C44.6123 41.7687 46.3254 40.9437 47.7936 39.7729C49.2618 38.6021 50.4473 37.1155 51.2621 35.4235C52.0769 33.7316 52.5 31.8779 52.5 30C52.5 28.1221 52.0769 26.2684 51.2621 24.5765C50.4473 22.8845 49.2618 21.3979 47.7936 20.2271C46.3254 19.0563 44.6123 18.2313 42.7815 17.8134Z" fill="#1767F9"/>
<path d="M42.7815 17.8134C40.9507 17.3955 39.0493 17.3955 37.2185 17.8134C35.3877 18.2313 33.6746 19.0563 32.2064 20.2271C30.7382 21.3979 29.5527 22.8845 28.7379 24.5765C27.9231 26.2684 27.5 28.1221 27.5 30C27.5 31.8779 27.9231 33.7316 28.7379 35.4235C29.5527 37.1155 30.7382 38.6021 32.2064 39.7729C33.6746 40.9437 35.3877 41.7687 37.2185 42.1866C39.0493 42.6045 40.9507 42.6045 42.7815 42.1866C44.6123 41.7687 46.3254 40.9437 47.7936 39.7729C49.2618 38.6021 50.4473 37.1155 51.2621 35.4235C52.0769 33.7316 52.5 31.8779 52.5 30C52.5 28.1221 52.0769 26.2684 51.2621 24.5765C50.4473 22.8845 49.2618 21.3979 47.7936 20.2271C46.3254 19.0563 44.6123 18.2313 42.7815 17.8134Z" fill="#4BB1BC"/>
<path d="M42.7815 17.8134C40.9507 17.3955 39.0493 17.3955 37.2185 17.8134C35.3877 18.2313 33.6746 19.0563 32.2064 20.2271C30.7382 21.3979 29.5527 22.8845 28.7379 24.5765C27.9231 26.2684 27.5 28.1221 27.5 30C27.5 31.8779 27.9231 33.7316 28.7379 35.4235C29.5527 37.1155 30.7382 38.6021 32.2064 39.7729C33.6746 40.9437 35.3877 41.7687 37.2185 42.1866C39.0493 42.6045 40.9507 42.6045 42.7815 42.1866C44.6123 41.7687 46.3254 40.9437 47.7936 39.7729C49.2618 38.6021 50.4473 37.1155 51.2621 35.4235C52.0769 33.7316 52.5 31.8779 52.5 30C52.5 28.1221 52.0769 26.2684 51.2621 24.5765C50.4473 22.8845 49.2618 21.3979 47.7936 20.2271C46.3254 19.0563 44.6123 18.2313 42.7815 17.8134Z" fill="url(#paint12_radial_2_7435)"/>
<path d="M42.7815 17.8134C40.9507 17.3955 39.0493 17.3955 37.2185 17.8134C35.3877 18.2313 33.6746 19.0563 32.2064 20.2271C30.7382 21.3979 29.5527 22.8845 28.7379 24.5765C27.9231 26.2684 27.5 28.1221 27.5 30C27.5 31.8779 27.9231 33.7316 28.7379 35.4235C29.5527 37.1155 30.7382 38.6021 32.2064 39.7729C33.6746 40.9437 35.3877 41.7687 37.2185 42.1866C39.0493 42.6045 40.9507 42.6045 42.7815 42.1866C44.6123 41.7687 46.3254 40.9437 47.7936 39.7729C49.2618 38.6021 50.4473 37.1155 51.2621 35.4235C52.0769 33.7316 52.5 31.8779 52.5 30C52.5 28.1221 52.0769 26.2684 51.2621 24.5765C50.4473 22.8845 49.2618 21.3979 47.7936 20.2271C46.3254 19.0563 44.6123 18.2313 42.7815 17.8134Z" fill="url(#paint13_radial_2_7435)" fill-opacity="0.5"/>
<path d="M42.7815 17.8134C40.9507 17.3955 39.0493 17.3955 37.2185 17.8134C35.3877 18.2313 33.6746 19.0563 32.2064 20.2271C30.7382 21.3979 29.5527 22.8845 28.7379 24.5765C27.9231 26.2684 27.5 28.1221 27.5 30C27.5 31.8779 27.9231 33.7316 28.7379 35.4235C29.5527 37.1155 30.7382 38.6021 32.2064 39.7729C33.6746 40.9437 35.3877 41.7687 37.2185 42.1866C39.0493 42.6045 40.9507 42.6045 42.7815 42.1866C44.6123 41.7687 46.3254 40.9437 47.7936 39.7729C49.2618 38.6021 50.4473 37.1155 51.2621 35.4235C52.0769 33.7316 52.5 31.8779 52.5 30C52.5 28.1221 52.0769 26.2684 51.2621 24.5765C50.4473 22.8845 49.2618 21.3979 47.7936 20.2271C46.3254 19.0563 44.6123 18.2313 42.7815 17.8134Z" fill="url(#paint14_linear_2_7435)"/>
<path d="M42.7815 17.8134C40.9507 17.3955 39.0493 17.3955 37.2185 17.8134C35.3877 18.2313 33.6746 19.0563 32.2064 20.2271C30.7382 21.3979 29.5527 22.8845 28.7379 24.5765C27.9231 26.2684 27.5 28.1221 27.5 30C27.5 31.8779 27.9231 33.7316 28.7379 35.4235C29.5527 37.1155 30.7382 38.6021 32.2064 39.7729C33.6746 40.9437 35.3877 41.7687 37.2185 42.1866C39.0493 42.6045 40.9507 42.6045 42.7815 42.1866C44.6123 41.7687 46.3254 40.9437 47.7936 39.7729C49.2618 38.6021 50.4473 37.1155 51.2621 35.4235C52.0769 33.7316 52.5 31.8779 52.5 30C52.5 28.1221 52.0769 26.2684 51.2621 24.5765C50.4473 22.8845 49.2618 21.3979 47.7936 20.2271C46.3254 19.0563 44.6123 18.2313 42.7815 17.8134Z" stroke="black" stroke-width="3"/>
</g>
<defs>
<radialGradient id="paint0_radial_2_7435" cx="0" cy="0" r="1" gradientUnits="userSpaceOnUse" gradientTransform="translate(3 8.85714) rotate(101.976) scale(6.42557 3.80733)">
<stop stop-color="#FF8A1E"/>
<stop offset="1" stop-color="#EF4141"/>
</radialGradient>
<radialGradient id="paint1_radial_2_7435" cx="0" cy="0" r="1" gradientUnits="userSpaceOnUse" gradientTransform="translate(2.44709 6.14286) rotate(-133.85) scale(7.92381 12.8151)">
<stop stop-color="#FFA901"/>
<stop offset="1" stop-color="#FFC701" stop-opacity="0"/>
</radialGradient>
<linearGradient id="paint2_linear_2_7435" x1="4.15864" y1="5.58417e-07" x2="-6.77772" y2="8.56098" gradientUnits="userSpaceOnUse">
<stop stop-color="#FFDF35"/>
<stop offset="1" stop-color="#FF8A01" stop-opacity="0"/>
</linearGradient>
<radialGradient id="paint3_radial_2_7435" cx="0" cy="0" r="1" gradientUnits="userSpaceOnUse" gradientTransform="translate(15.3701 55.1151) rotate(151.671) scale(9.29548 7.45691)">
<stop stop-color="#FF8A1E"/>
<stop offset="1" stop-color="#EF4141"/>
</radialGradient>
<radialGradient id="paint4_radial_2_7435" cx="0" cy="0" r="1" gradientUnits="userSpaceOnUse" gradientTransform="translate(17.3072 51.6142) rotate(-98.5968) scale(13.6407 21.0921)">
<stop stop-color="#FFA901"/>
<stop offset="1" stop-color="#FFC701" stop-opacity="0"/>
</radialGradient>
<linearGradient id="paint5_linear_2_7435" x1="25.8812" y1="47.8812" x2="2.24209" y2="49.0617" gradientUnits="userSpaceOnUse">
<stop stop-color="#FFDF35"/>
<stop offset="1" stop-color="#FF8A01" stop-opacity="0"/>
</linearGradient>
<radialGradient id="paint6_radial_2_7435" cx="0" cy="0" r="1" gradientUnits="userSpaceOnUse" gradientTransform="translate(36.5127 38.3033) rotate(63.0198) scale(20.4985 24.192)">
<stop stop-color="#FF8A1E"/>
<stop offset="1" stop-color="#EF4141"/>
</radialGradient>
<radialGradient id="paint7_radial_2_7435" cx="0" cy="0" r="1" gradientUnits="userSpaceOnUse" gradientTransform="translate(40.3691 30.4151) rotate(-23.4481) scale(41.7344 49.3202)">
<stop stop-color="#FFA901"/>
<stop offset="1" stop-color="#FFC701" stop-opacity="0"/>
</radialGradient>
<radialGradient id="paint8_radial_2_7435" cx="0" cy="0" r="1" gradientUnits="userSpaceOnUse" gradientTransform="translate(40.3692 28.7544) rotate(-10.5132) scale(45.7354 39.3672)">
<stop stop-color="#FFDF35"/>
<stop offset="1" stop-color="#FF8A01" stop-opacity="0"/>
</radialGradient>
<radialGradient id="paint9_radial_2_7435" cx="0" cy="0" r="1" gradientUnits="userSpaceOnUse" gradientTransform="translate(37.9358 35.6054) rotate(63.0198) scale(15.0724 17.7882)">
<stop stop-color="#FF8A1E"/>
<stop offset="1" stop-color="#EF4141"/>
</radialGradient>
<radialGradient id="paint10_radial_2_7435" cx="0" cy="0" r="1" gradientUnits="userSpaceOnUse" gradientTransform="translate(40.7714 29.8052) rotate(-23.4481) scale(30.687 36.2648)">
<stop stop-color="#FFA901"/>
<stop offset="1" stop-color="#FFC701" stop-opacity="0"/>
</radialGradient>
<radialGradient id="paint11_radial_2_7435" cx="0" cy="0" r="1" gradientUnits="userSpaceOnUse" gradientTransform="translate(40.7714 28.5841) rotate(-11.4208) scale(24.0688 20.7175)">
<stop stop-color="#FFDF35"/>
<stop offset="1" stop-color="#FF8A01" stop-opacity="0"/>
</radialGradient>
<radialGradient id="paint12_radial_2_7435" cx="0" cy="0" r="1" gradientUnits="userSpaceOnUse" gradientTransform="translate(37.2 36.6667) rotate(63.0198) scale(16.4579 19.4233)">
<stop stop-color="#FF8A1E"/>
<stop offset="1" stop-color="#EF4141"/>
</radialGradient>
<radialGradient id="paint13_radial_2_7435" cx="0" cy="0" r="1" gradientUnits="userSpaceOnUse" gradientTransform="translate(40.2963 30.3333) rotate(-23.4481) scale(33.5078 39.5983)">
<stop stop-color="#FFA901"/>
<stop offset="1" stop-color="#FFC701" stop-opacity="0"/>
</radialGradient>
<linearGradient id="paint14_linear_2_7435" x1="36.5" y1="24.5" x2="44.6662" y2="35.7424" gradientUnits="userSpaceOnUse">
<stop stop-color="#FFDF35"/>
<stop offset="1" stop-color="#FFDF35" stop-opacity="0"/>
</linearGradient>
<clipPath id="clip0_2_7435">
<rect width="50" height="50" fill="white" transform="matrix(-1 0 0 1 60 10)"/>
</clipPath>
</defs>
</svg>
